<?xml version="1.0" encoding="UTF-8" standalone="no"?>
<!DOCTYPE svg PUBLIC "-//W3C//DTD SVG 1.1//EN"
 "http://www.w3.org/Graphics/SVG/1.1/DTD/svg11.dtd">
<!-- Generated by graphviz version 6.0.2 (20221126.1951)
 -->
<!-- Title: snakemake_dag Pages: 1 -->
<svg width="1696pt" height="1196pt"
 viewBox="0.00 0.00 1696.00 1196.00" xmlns="http://www.w3.org/2000/svg" xmlns:xlink="http://www.w3.org/1999/xlink">
<g id="graph0" class="graph" transform="scale(1 1) rotate(0) translate(4 1192)">
<title>snakemake_dag</title>
<polygon fill="white" stroke="none" points="-4,4 -4,-1192 1692,-1192 1692,4 -4,4"/>
<!-- 0 -->
<g id="node1" class="node">
<title>0</title>
<path fill="none" stroke="#566bd8" stroke-width="2" d="M129,-36C129,-36 99,-36 99,-36 93,-36 87,-30 87,-24 87,-24 87,-12 87,-12 87,-6 93,0 99,0 99,0 129,0 129,0 135,0 141,-6 141,-12 141,-12 141,-24 141,-24 141,-30 135,-36 129,-36"/>
<text text-anchor="middle" x="114" y="-15.5" font-family="sans" font-size="10.00">all</text>
</g>
<!-- 1 -->
<g id="node2" class="node">
<title>1</title>
<path fill="none" stroke="#a7d856" stroke-width="2" d="M707.5,-828C707.5,-828 642.5,-828 642.5,-828 636.5,-828 630.5,-822 630.5,-816 630.5,-816 630.5,-804 630.5,-804 630.5,-798 636.5,-792 642.5,-792 642.5,-792 707.5,-792 707.5,-792 713.5,-792 719.5,-798 719.5,-804 719.5,-804 719.5,-816 719.5,-816 719.5,-822 713.5,-828 707.5,-828"/>
<text text-anchor="middle" x="675" y="-807.5" font-family="sans" font-size="10.00">variant_counts</text>
</g>
<!-- 1&#45;&gt;0 -->
<g id="edge2" class="edge">
<title>1&#45;&gt;0</title>
<path fill="none" stroke="grey" stroke-width="2" d="M630.18,-797.59C599.62,-788.74 558.89,-774.81 526,-756 327.92,-642.75 262.04,-600.08 160,-396 101.83,-279.66 109.81,-238.06 108,-108 107.78,-92 107.1,-87.97 108,-72 108.48,-63.55 109.38,-54.38 110.34,-46.07"/>
<polygon fill="grey" stroke="grey" stroke-width="2" points="113.81,-46.5 111.56,-36.14 106.87,-45.64 113.81,-46.5"/>
</g>
<!-- 10 -->
<g id="node11" class="node">
<title>10</title>
<path fill="none" stroke="#567bd8" stroke-width="2" d="M1001,-756C1001,-756 893,-756 893,-756 887,-756 881,-750 881,-744 881,-744 881,-732 881,-732 881,-726 887,-720 893,-720 893,-720 1001,-720 1001,-720 1007,-720 1013,-726 1013,-732 1013,-732 1013,-744 1013,-744 1013,-750 1007,-756 1001,-756"/>
<text text-anchor="middle" x="947" y="-735.5" font-family="sans" font-size="10.00">analyze_variant_counts</text>
</g>
<!-- 1&#45;&gt;10 -->
<g id="edge20" class="edge">
<title>1&#45;&gt;10</title>
<path fill="none" stroke="grey" stroke-width="2" d="M719.61,-797.52C760.64,-786.96 822.33,-771.08 871.1,-758.53"/>
<polygon fill="grey" stroke="grey" stroke-width="2" points="872.18,-761.87 880.99,-755.99 870.43,-755.09 872.18,-761.87"/>
</g>
<!-- 14 -->
<g id="node15" class="node">
<title>14</title>
<path fill="none" stroke="#56a9d8" stroke-width="2" d="M482,-612C482,-612 432,-612 432,-612 426,-612 420,-606 420,-600 420,-600 420,-588 420,-588 420,-582 426,-576 432,-576 432,-576 482,-576 482,-576 488,-576 494,-582 494,-588 494,-588 494,-600 494,-600 494,-606 488,-612 482,-612"/>
<text text-anchor="middle" x="457" y="-591.5" font-family="sans" font-size="10.00">func_scores</text>
</g>
<!-- 1&#45;&gt;14 -->
<g id="edge31" class="edge">
<title>1&#45;&gt;14</title>
<path fill="none" stroke="grey" stroke-width="2" d="M666.39,-791.93C649.63,-760.13 609.89,-691.13 560,-648 543.47,-633.71 522.42,-622 503.66,-613.26"/>
<polygon fill="grey" stroke="grey" stroke-width="2" points="504.94,-610 494.39,-609.09 502.07,-616.38 504.94,-610"/>
</g>
<!-- 16 -->
<g id="node17" class="node">
<title>16</title>
<path fill="none" stroke="#56d892" stroke-width="2" d="M1084,-612C1084,-612 1030,-612 1030,-612 1024,-612 1018,-606 1018,-600 1018,-600 1018,-588 1018,-588 1018,-582 1024,-576 1030,-576 1030,-576 1084,-576 1084,-576 1090,-576 1096,-582 1096,-588 1096,-588 1096,-600 1096,-600 1096,-606 1090,-612 1084,-612"/>
<text text-anchor="middle" x="1057" y="-591.5" font-family="sans" font-size="10.00">prob_escape</text>
</g>
<!-- 1&#45;&gt;16 -->
<g id="edge38" class="edge">
<title>1&#45;&gt;16</title>
<path fill="none" stroke="grey" stroke-width="2" d="M712.47,-791.98C761.87,-769.13 851.07,-726.49 924,-684 959.37,-663.39 998.09,-637.02 1024.58,-618.35"/>
<polygon fill="grey" stroke="grey" stroke-width="2" points="1026.93,-620.97 1033.07,-612.34 1022.89,-615.26 1026.93,-620.97"/>
</g>
<!-- 17 -->
<g id="node18" class="node">
<title>17</title>
<path fill="none" stroke="#d86e56" stroke-width="2" d="M939,-108C939,-108 885,-108 885,-108 879,-108 873,-102 873,-96 873,-96 873,-84 873,-84 873,-78 879,-72 885,-72 885,-72 939,-72 939,-72 945,-72 951,-78 951,-84 951,-84 951,-96 951,-96 951,-102 945,-108 939,-108"/>
<text text-anchor="middle" x="912" y="-87.5" font-family="sans" font-size="10.00">sphinx_build</text>
</g>
<!-- 1&#45;&gt;17 -->
<g id="edge47" class="edge">
<title>1&#45;&gt;17</title>
<path fill="none" stroke="grey" stroke-width="2" d="M642.52,-791.85C588.27,-761.81 478.54,-694.91 411,-612 293.92,-468.27 246.92,-398.41 280,-216 286.1,-182.37 279.79,-164.67 307,-144 350.83,-110.7 725.67,-96.46 862.37,-92.34"/>
<polygon fill="grey" stroke="grey" stroke-width="2" points="862.67,-95.84 872.56,-92.04 862.46,-88.84 862.67,-95.84"/>
</g>
<!-- 25 -->
<g id="node26" class="node">
<title>25</title>
<path fill="none" stroke="#d85656" stroke-width="2" d="M857.5,-180C857.5,-180 810.5,-180 810.5,-180 804.5,-180 798.5,-174 798.5,-168 798.5,-168 798.5,-156 798.5,-156 798.5,-150 804.5,-144 810.5,-144 810.5,-144 857.5,-144 857.5,-144 863.5,-144 869.5,-150 869.5,-156 869.5,-156 869.5,-168 869.5,-168 869.5,-174 863.5,-180 857.5,-180"/>
<text text-anchor="middle" x="834" y="-159.5" font-family="sans" font-size="10.00">docs_index</text>
</g>
<!-- 1&#45;&gt;25 -->
<g id="edge82" class="edge">
<title>1&#45;&gt;25</title>
<path fill="none" stroke="grey" stroke-width="2" d="M677.29,-791.74C686.46,-722.14 720,-461.94 720,-379 720,-379 720,-379 720,-305 720,-264.03 719.17,-248.59 744,-216 750.57,-207.37 770.67,-195.23 790.21,-184.74"/>
<polygon fill="grey" stroke="grey" stroke-width="2" points="791.88,-187.81 799.1,-180.06 788.62,-181.62 791.88,-187.81"/>
</g>
<!-- 2 -->
<g id="node3" class="node">
<title>2</title>
<path fill="none" stroke="#d8a456" stroke-width="2" d="M812.5,-900C812.5,-900 743.5,-900 743.5,-900 737.5,-900 731.5,-894 731.5,-888 731.5,-888 731.5,-876 731.5,-876 731.5,-870 737.5,-864 743.5,-864 743.5,-864 812.5,-864 812.5,-864 818.5,-864 824.5,-870 824.5,-876 824.5,-876 824.5,-888 824.5,-888 824.5,-894 818.5,-900 812.5,-900"/>
<text text-anchor="middle" x="778" y="-879.5" font-family="sans" font-size="10.00">count_barcodes</text>
</g>
<!-- 2&#45;&gt;1 -->
<g id="edge7" class="edge">
<title>2&#45;&gt;1</title>
<path fill="none" stroke="grey" stroke-width="2" d="M752.8,-863.88C739.59,-854.89 723.21,-843.76 708.89,-834.03"/>
<polygon fill="grey" stroke="grey" stroke-width="2" points="710.53,-830.92 700.29,-828.19 706.6,-836.71 710.53,-830.92"/>
</g>
<!-- 2&#45;&gt;10 -->
<g id="edge22" class="edge">
<title>2&#45;&gt;10</title>
<path fill="none" stroke="grey" stroke-width="2" d="M798.39,-863.87C828.46,-838.6 884.81,-791.25 918.82,-762.68"/>
<polygon fill="grey" stroke="grey" stroke-width="2" points="921.14,-765.3 926.54,-756.19 916.63,-759.94 921.14,-765.3"/>
</g>
<!-- 3 -->
<g id="node4" class="node">
<title>3</title>
<path fill="none" stroke="#d87d56" stroke-width="2" d="M919,-972C919,-972 823,-972 823,-972 817,-972 811,-966 811,-960 811,-960 811,-948 811,-948 811,-942 817,-936 823,-936 823,-936 919,-936 919,-936 925,-936 931,-942 931,-948 931,-948 931,-960 931,-960 931,-966 925,-972 919,-972"/>
<text text-anchor="middle" x="871" y="-951.5" font-family="sans" font-size="10.00">build_codon_variants</text>
</g>
<!-- 3&#45;&gt;1 -->
<g id="edge8" class="edge">
<title>3&#45;&gt;1</title>
<path fill="none" stroke="grey" stroke-width="2" d="M810.73,-942C781.62,-934.22 747.73,-921.26 723,-900 703.84,-883.53 691.05,-857.45 683.53,-837.77"/>
<polygon fill="grey" stroke="grey" stroke-width="2" points="686.75,-836.37 680.07,-828.15 680.16,-838.74 686.75,-836.37"/>
</g>
<!-- 3&#45;&gt;2 -->
<g id="edge9" class="edge">
<title>3&#45;&gt;2</title>
<path fill="none" stroke="grey" stroke-width="2" d="M848.01,-935.7C836.19,-926.8 821.61,-915.82 808.82,-906.2"/>
<polygon fill="grey" stroke="grey" stroke-width="2" points="810.82,-903.32 800.72,-900.1 806.61,-908.91 810.82,-903.32"/>
</g>
<!-- 3&#45;&gt;10 -->
<g id="edge21" class="edge">
<title>3&#45;&gt;10</title>
<path fill="none" stroke="grey" stroke-width="2" d="M877.09,-935.85C890.29,-898.68 921.63,-810.44 937.48,-765.82"/>
<polygon fill="grey" stroke="grey" stroke-width="2" points="940.83,-766.83 940.88,-756.23 934.24,-764.48 940.83,-766.83"/>
</g>
<!-- 3&#45;&gt;14 -->
<g id="edge32" class="edge">
<title>3&#45;&gt;14</title>
<path fill="none" stroke="grey" stroke-width="2" d="M810.63,-943.14C774.36,-935.33 728.34,-921.96 692,-900 576.84,-830.4 497.49,-681.68 468.83,-621.3"/>
<polygon fill="grey" stroke="grey" stroke-width="2" points="471.92,-619.64 464.52,-612.06 465.58,-622.6 471.92,-619.64"/>
</g>
<!-- 3&#45;&gt;16 -->
<g id="edge39" class="edge">
<title>3&#45;&gt;16</title>
<path fill="none" stroke="grey" stroke-width="2" d="M884.67,-935.79C892.48,-925.64 902.23,-912.39 910,-900 938.83,-854.02 930.47,-832.14 967,-792 986.67,-770.39 1005.44,-780.07 1022,-756 1049.94,-715.39 1056.13,-656.49 1057.18,-622.33"/>
<polygon fill="grey" stroke="grey" stroke-width="2" points="1060.68,-622.22 1057.37,-612.16 1053.69,-622.1 1060.68,-622.22"/>
</g>
<!-- 3&#45;&gt;17 -->
<g id="edge43" class="edge">
<title>3&#45;&gt;17</title>
<path fill="none" stroke="grey" stroke-width="2" d="M810.95,-945.95C763.44,-938.78 696.29,-925.04 642,-900 383.86,-780.93 169.89,-713.97 206,-432 222.8,-300.8 179.83,-229.2 281,-144 325.15,-106.82 721.45,-94.98 862.47,-91.92"/>
<polygon fill="grey" stroke="grey" stroke-width="2" points="862.64,-95.42 872.56,-91.7 862.49,-88.42 862.64,-95.42"/>
</g>
<!-- 21 -->
<g id="node22" class="node">
<title>21</title>
<path fill="none" stroke="#59d856" stroke-width="2" d="M1112.5,-324C1112.5,-324 1057.5,-324 1057.5,-324 1051.5,-324 1045.5,-318 1045.5,-312 1045.5,-312 1045.5,-300 1045.5,-300 1045.5,-294 1051.5,-288 1057.5,-288 1057.5,-288 1112.5,-288 1112.5,-288 1118.5,-288 1124.5,-294 1124.5,-300 1124.5,-300 1124.5,-312 1124.5,-312 1124.5,-318 1118.5,-324 1112.5,-324"/>
<text text-anchor="middle" x="1085" y="-303.5" font-family="sans" font-size="10.00">make_nblink</text>
</g>
<!-- 3&#45;&gt;21 -->
<g id="edge69" class="edge">
<title>3&#45;&gt;21</title>
<path fill="none" stroke="grey" stroke-width="2" d="M905.52,-936C976.67,-898.25 1133,-800.16 1133,-667 1133,-667 1133,-667 1133,-521 1133,-452.17 1109.07,-373.85 1095,-333.75"/>
<polygon fill="grey" stroke="grey" stroke-width="2" points="1098.24,-332.42 1091.57,-324.18 1091.65,-334.78 1098.24,-332.42"/>
</g>
<!-- 3&#45;&gt;25 -->
<g id="edge84" class="edge">
<title>3&#45;&gt;25</title>
<path fill="none" stroke="grey" stroke-width="2" d="M864.49,-935.67C857.52,-917.54 845.86,-888.38 834,-864 793.88,-781.51 756.2,-772.75 733,-684 728.95,-668.52 731.99,-663.97 733,-648 738.57,-559.92 758,-539.26 758,-451 758,-451 758,-451 758,-305 758,-259.64 788.52,-214.75 810.88,-187.95"/>
<polygon fill="grey" stroke="grey" stroke-width="2" points="813.64,-190.09 817.51,-180.23 808.34,-185.53 813.64,-190.09"/>
</g>
<!-- 4 -->
<g id="node5" class="node">
<title>4</title>
<path fill="none" stroke="#ced856" stroke-width="2" d="M1435,-1044C1435,-1044 1325,-1044 1325,-1044 1319,-1044 1313,-1038 1313,-1032 1313,-1032 1313,-1020 1313,-1020 1313,-1014 1319,-1008 1325,-1008 1325,-1008 1435,-1008 1435,-1008 1441,-1008 1447,-1014 1447,-1020 1447,-1020 1447,-1032 1447,-1032 1447,-1038 1441,-1044 1435,-1044"/>
<text text-anchor="middle" x="1380" y="-1023.5" font-family="sans" font-size="10.00">build_pacbio_consensus</text>
</g>
<!-- 4&#45;&gt;3 -->
<g id="edge10" class="edge">
<title>4&#45;&gt;3</title>
<path fill="none" stroke="grey" stroke-width="2" d="M1312.93,-1015.78C1216.47,-1002.51 1039.37,-978.16 941.2,-964.65"/>
<polygon fill="grey" stroke="grey" stroke-width="2" points="941.46,-961.16 931.08,-963.26 940.51,-968.09 941.46,-961.16"/>
</g>
<!-- 4&#45;&gt;17 -->
<g id="edge46" class="edge">
<title>4&#45;&gt;17</title>
<path fill="none" stroke="grey" stroke-width="2" d="M1388.85,-1007.86C1432.25,-921.5 1616.89,-525.85 1524,-216 1513.61,-181.34 1516.09,-164.09 1486,-144 1442.85,-115.19 1092.92,-98.28 961.57,-92.89"/>
<polygon fill="grey" stroke="grey" stroke-width="2" points="961.53,-89.39 951.39,-92.48 961.24,-96.38 961.53,-89.39"/>
</g>
<!-- 4&#45;&gt;21 -->
<g id="edge64" class="edge">
<title>4&#45;&gt;21</title>
<path fill="none" stroke="grey" stroke-width="2" d="M1376.16,-1007.61C1370.6,-980.94 1361,-928.27 1361,-883 1361,-883 1361,-883 1361,-593 1361,-467.13 1297.19,-439.99 1200,-360 1189.12,-351.04 1160.27,-337.76 1134.2,-326.73"/>
<polygon fill="grey" stroke="grey" stroke-width="2" points="1135.33,-323.41 1124.76,-322.78 1132.63,-329.87 1135.33,-323.41"/>
</g>
<!-- 4&#45;&gt;25 -->
<g id="edge76" class="edge">
<title>4&#45;&gt;25</title>
<path fill="none" stroke="grey" stroke-width="2" d="M1368.19,-1007.96C1351.49,-982.16 1323,-931.08 1323,-883 1323,-883 1323,-883 1323,-737 1323,-688.79 1291.44,-685.38 1261,-648 1107.96,-460.03 1031.43,-445.92 886,-252 871.01,-232.01 856.9,-207.34 847.17,-189.05"/>
<polygon fill="grey" stroke="grey" stroke-width="2" points="850.23,-187.36 842.5,-180.12 844.03,-190.61 850.23,-187.36"/>
</g>
<!-- 5 -->
<g id="node6" class="node">
<title>5</title>
<path fill="none" stroke="#56d8d0" stroke-width="2" d="M1612.5,-1116C1612.5,-1116 1523.5,-1116 1523.5,-1116 1517.5,-1116 1511.5,-1110 1511.5,-1104 1511.5,-1104 1511.5,-1092 1511.5,-1092 1511.5,-1086 1517.5,-1080 1523.5,-1080 1523.5,-1080 1612.5,-1080 1612.5,-1080 1618.5,-1080 1624.5,-1086 1624.5,-1092 1624.5,-1092 1624.5,-1104 1624.5,-1104 1624.5,-1110 1618.5,-1116 1612.5,-1116"/>
<text text-anchor="middle" x="1568" y="-1095.5" font-family="sans" font-size="10.00">analyze_pacbio_ccs</text>
</g>
<!-- 5&#45;&gt;4 -->
<g id="edge13" class="edge">
<title>5&#45;&gt;4</title>
<path fill="none" stroke="grey" stroke-width="2" d="M1522.01,-1079.88C1495.85,-1070.14 1462.91,-1057.87 1435.35,-1047.61"/>
<polygon fill="grey" stroke="grey" stroke-width="2" points="1436.43,-1044.28 1425.84,-1044.07 1433.99,-1050.84 1436.43,-1044.28"/>
</g>
<!-- 5&#45;&gt;17 -->
<g id="edge55" class="edge">
<title>5&#45;&gt;17</title>
<path fill="none" stroke="grey" stroke-width="2" d="M1597.05,-1079.91C1632.56,-1056.58 1688,-1011.16 1688,-955 1688,-955 1688,-955 1688,-233 1688,-146.14 1597.47,-168.03 1514,-144 1410.54,-114.22 1086.06,-98.12 961.43,-92.91"/>
<polygon fill="grey" stroke="grey" stroke-width="2" points="961.54,-89.41 951.4,-92.5 961.25,-96.41 961.54,-89.41"/>
</g>
<!-- 5&#45;&gt;21 -->
<g id="edge71" class="edge">
<title>5&#45;&gt;21</title>
<path fill="none" stroke="grey" stroke-width="2" d="M1571.84,-1079.61C1577.4,-1052.94 1587,-1000.27 1587,-955 1587,-955 1587,-955 1587,-809 1587,-555.43 1455.49,-485.23 1235,-360 1194.87,-337.21 1178.55,-340.19 1134.29,-325.41"/>
<polygon fill="grey" stroke="grey" stroke-width="2" points="1135.32,-322.06 1124.73,-322.08 1133.03,-328.67 1135.32,-322.06"/>
</g>
<!-- 5&#45;&gt;25 -->
<g id="edge89" class="edge">
<title>5&#45;&gt;25</title>
<path fill="none" stroke="grey" stroke-width="2" d="M1560.31,-1079.91C1549.21,-1053.62 1530,-1001.45 1530,-955 1530,-955 1530,-955 1530,-881 1530,-785.51 1511,-762.49 1511,-667 1511,-667 1511,-667 1511,-449 1511,-402.03 1491.73,-387.98 1454,-360 1359.41,-289.84 1313.05,-317.33 1199,-288 1130.51,-270.39 1107.47,-283.21 1044,-252 1021.33,-240.85 1022.21,-228.06 1000,-216 961.65,-195.18 913.8,-180.99 879.35,-172.58"/>
<polygon fill="grey" stroke="grey" stroke-width="2" points="880.1,-169.16 869.56,-170.25 878.48,-175.97 880.1,-169.16"/>
</g>
<!-- 6 -->
<g id="node7" class="node">
<title>6</title>
<path fill="none" stroke="#8fd856" stroke-width="2" d="M1621.5,-1188C1621.5,-1188 1514.5,-1188 1514.5,-1188 1508.5,-1188 1502.5,-1182 1502.5,-1176 1502.5,-1176 1502.5,-1164 1502.5,-1164 1502.5,-1158 1508.5,-1152 1514.5,-1152 1514.5,-1152 1621.5,-1152 1621.5,-1152 1627.5,-1152 1633.5,-1158 1633.5,-1164 1633.5,-1164 1633.5,-1176 1633.5,-1176 1633.5,-1182 1627.5,-1188 1621.5,-1188"/>
<text text-anchor="middle" x="1568" y="-1167.5" font-family="sans" font-size="10.00">align_parse_PacBio_ccs</text>
</g>
<!-- 6&#45;&gt;5 -->
<g id="edge15" class="edge">
<title>6&#45;&gt;5</title>
<path fill="none" stroke="grey" stroke-width="2" d="M1568,-1151.7C1568,-1143.98 1568,-1134.71 1568,-1126.11"/>
<polygon fill="grey" stroke="grey" stroke-width="2" points="1571.5,-1126.1 1568,-1116.1 1564.5,-1126.1 1571.5,-1126.1"/>
</g>
<!-- 7 -->
<g id="node8" class="node">
<title>7</title>
<path fill="none" stroke="#56b9d8" stroke-width="2" d="M905,-1116C905,-1116 837,-1116 837,-1116 831,-1116 825,-1110 825,-1104 825,-1104 825,-1092 825,-1092 825,-1086 831,-1080 837,-1080 837,-1080 905,-1080 905,-1080 911,-1080 917,-1086 917,-1092 917,-1092 917,-1104 917,-1104 917,-1110 911,-1116 905,-1116"/>
<text text-anchor="middle" x="871" y="-1095.5" font-family="sans" font-size="10.00">gene_sequence</text>
</g>
<!-- 7&#45;&gt;1 -->
<g id="edge6" class="edge">
<title>7&#45;&gt;1</title>
<path fill="none" stroke="grey" stroke-width="2" d="M848.96,-1079.89C810.41,-1048.65 731.12,-978.34 692,-900 682.37,-880.71 678.17,-856.55 676.36,-838.28"/>
<polygon fill="grey" stroke="grey" stroke-width="2" points="679.85,-837.96 675.54,-828.28 672.87,-838.53 679.85,-837.96"/>
</g>
<!-- 7&#45;&gt;3 -->
<g id="edge12" class="edge">
<title>7&#45;&gt;3</title>
<path fill="none" stroke="grey" stroke-width="2" d="M871,-1079.87C871,-1055.67 871,-1011.21 871,-982.39"/>
<polygon fill="grey" stroke="grey" stroke-width="2" points="874.5,-982.19 871,-972.19 867.5,-982.19 874.5,-982.19"/>
</g>
<!-- 7&#45;&gt;4 -->
<g id="edge14" class="edge">
<title>7&#45;&gt;4</title>
<path fill="none" stroke="grey" stroke-width="2" d="M917.1,-1092.57C995.74,-1084.73 1160.71,-1067.03 1299,-1044 1300.28,-1043.79 1301.56,-1043.57 1302.86,-1043.35"/>
<polygon fill="grey" stroke="grey" stroke-width="2" points="1303.68,-1046.75 1312.9,-1041.53 1302.44,-1039.86 1303.68,-1046.75"/>
</g>
<!-- 8 -->
<g id="node9" class="node">
<title>8</title>
<path fill="none" stroke="#b6d856" stroke-width="2" d="M1025.5,-1044C1025.5,-1044 930.5,-1044 930.5,-1044 924.5,-1044 918.5,-1038 918.5,-1032 918.5,-1032 918.5,-1020 918.5,-1020 918.5,-1014 924.5,-1008 930.5,-1008 930.5,-1008 1025.5,-1008 1025.5,-1008 1031.5,-1008 1037.5,-1014 1037.5,-1020 1037.5,-1020 1037.5,-1032 1037.5,-1032 1037.5,-1038 1031.5,-1044 1025.5,-1044"/>
<text text-anchor="middle" x="978" y="-1023.5" font-family="sans" font-size="10.00">site_numbering_map</text>
</g>
<!-- 7&#45;&gt;8 -->
<g id="edge16" class="edge">
<title>7&#45;&gt;8</title>
<path fill="none" stroke="grey" stroke-width="2" d="M897.18,-1079.88C911.04,-1070.81 928.24,-1059.55 943.21,-1049.76"/>
<polygon fill="grey" stroke="grey" stroke-width="2" points="945.27,-1052.59 951.72,-1044.19 941.44,-1046.74 945.27,-1052.59"/>
</g>
<!-- 7&#45;&gt;10 -->
<g id="edge19" class="edge">
<title>7&#45;&gt;10</title>
<path fill="none" stroke="grey" stroke-width="2" d="M917.39,-1097.32C958.82,-1094.82 1017.4,-1083.83 1047,-1044 1113.24,-954.88 1015.77,-819.7 969.31,-764.16"/>
<polygon fill="grey" stroke="grey" stroke-width="2" points="971.74,-761.61 962.59,-756.26 966.4,-766.14 971.74,-761.61"/>
</g>
<!-- 7&#45;&gt;14 -->
<g id="edge30" class="edge">
<title>7&#45;&gt;14</title>
<path fill="none" stroke="grey" stroke-width="2" d="M824.7,-1095.17C690.53,-1088.6 311,-1060.69 311,-955 311,-955 311,-955 311,-881 311,-774.02 393.04,-666.72 434.12,-619.69"/>
<polygon fill="grey" stroke="grey" stroke-width="2" points="436.8,-621.95 440.82,-612.15 431.56,-617.3 436.8,-621.95"/>
</g>
<!-- 7&#45;&gt;16 -->
<g id="edge37" class="edge">
<title>7&#45;&gt;16</title>
<path fill="none" stroke="grey" stroke-width="2" d="M917.29,-1091.12C1025.32,-1076.12 1285,-1032.03 1285,-955 1285,-955 1285,-955 1285,-737 1285,-653.39 1173.16,-617.24 1106.14,-603.09"/>
<polygon fill="grey" stroke="grey" stroke-width="2" points="1106.69,-599.63 1096.19,-601.08 1105.3,-606.49 1106.69,-599.63"/>
</g>
<!-- 7&#45;&gt;17 -->
<g id="edge57" class="edge">
<title>7&#45;&gt;17</title>
<path fill="none" stroke="grey" stroke-width="2" d="M824.91,-1096.92C721.78,-1095.89 465.09,-1088.63 256,-1044 138.2,-1018.86 0,-1075.46 0,-955 0,-955 0,-955 0,-305 0,-175.45 120.53,-186.24 243,-144 357.73,-104.43 728.75,-94.17 862.97,-91.71"/>
<polygon fill="grey" stroke="grey" stroke-width="2" points="863.03,-95.21 872.97,-91.54 862.91,-88.21 863.03,-95.21"/>
</g>
<!-- 7&#45;&gt;25 -->
<g id="edge79" class="edge">
<title>7&#45;&gt;25</title>
<path fill="none" stroke="grey" stroke-width="2" d="M824.7,-1095.68C713.13,-1091.96 432.28,-1079.29 346,-1044 287.47,-1020.06 235,-1018.23 235,-955 235,-955 235,-955 235,-521 235,-450.46 268.89,-261.26 323,-216 358.32,-186.45 669.2,-170.09 788.06,-164.86"/>
<polygon fill="grey" stroke="grey" stroke-width="2" points="788.45,-168.35 798.29,-164.42 788.15,-161.36 788.45,-168.35"/>
</g>
<!-- 8&#45;&gt;3 -->
<g id="edge11" class="edge">
<title>8&#45;&gt;3</title>
<path fill="none" stroke="grey" stroke-width="2" d="M951.82,-1007.88C937.96,-998.81 920.76,-987.55 905.79,-977.76"/>
<polygon fill="grey" stroke="grey" stroke-width="2" points="907.56,-974.74 897.28,-972.19 903.73,-980.59 907.56,-974.74"/>
</g>
<!-- 8&#45;&gt;10 -->
<g id="edge18" class="edge">
<title>8&#45;&gt;10</title>
<path fill="none" stroke="grey" stroke-width="2" d="M976.15,-1007.97C970.98,-960.19 956.28,-824.62 949.96,-766.27"/>
<polygon fill="grey" stroke="grey" stroke-width="2" points="953.43,-765.87 948.88,-756.31 946.47,-766.63 953.43,-765.87"/>
</g>
<!-- 11 -->
<g id="node12" class="node">
<title>11</title>
<path fill="none" stroke="#5692d8" stroke-width="2" d="M1433,-396C1433,-396 1335,-396 1335,-396 1329,-396 1323,-390 1323,-384 1323,-384 1323,-372 1323,-372 1323,-366 1329,-360 1335,-360 1335,-360 1433,-360 1433,-360 1439,-360 1445,-366 1445,-372 1445,-372 1445,-384 1445,-384 1445,-390 1439,-396 1433,-396"/>
<text text-anchor="middle" x="1384" y="-375.5" font-family="sans" font-size="10.00">avg_antibody_escape</text>
</g>
<!-- 8&#45;&gt;11 -->
<g id="edge23" class="edge">
<title>8&#45;&gt;11</title>
<path fill="none" stroke="grey" stroke-width="2" d="M1037.71,-1009.33C1060,-1001.12 1084.19,-989.11 1102,-972 1124.89,-950.01 1321.5,-517.22 1372.14,-405.26"/>
<polygon fill="grey" stroke="grey" stroke-width="2" points="1375.39,-406.57 1376.32,-396.02 1369.01,-403.69 1375.39,-406.57"/>
</g>
<!-- 13 -->
<g id="node14" class="node">
<title>13</title>
<path fill="none" stroke="#d89556" stroke-width="2" d="M486.5,-540C486.5,-540 405.5,-540 405.5,-540 399.5,-540 393.5,-534 393.5,-528 393.5,-528 393.5,-516 393.5,-516 393.5,-510 399.5,-504 405.5,-504 405.5,-504 486.5,-504 486.5,-504 492.5,-504 498.5,-510 498.5,-516 498.5,-516 498.5,-528 498.5,-528 498.5,-534 492.5,-540 486.5,-540"/>
<text text-anchor="middle" x="446" y="-519.5" font-family="sans" font-size="10.00">fit_globalepistasis</text>
</g>
<!-- 8&#45;&gt;13 -->
<g id="edge27" class="edge">
<title>8&#45;&gt;13</title>
<path fill="none" stroke="grey" stroke-width="2" d="M918.07,-1025.49C800.8,-1025.38 546.25,-1019.47 475,-972 407.14,-926.78 387,-892.55 387,-811 387,-811 387,-811 387,-665 387,-624.03 394.16,-613.35 411,-576 415.24,-566.6 421.05,-556.99 426.72,-548.59"/>
<polygon fill="grey" stroke="grey" stroke-width="2" points="429.64,-550.52 432.51,-540.32 423.91,-546.51 429.64,-550.52"/>
</g>
<!-- 8&#45;&gt;14 -->
<g id="edge29" class="edge">
<title>8&#45;&gt;14</title>
<path fill="none" stroke="grey" stroke-width="2" d="M918.19,-1024.01C810.69,-1021.25 589.97,-1010.89 525,-972 483.64,-947.24 463,-931.21 463,-883 463,-883 463,-883 463,-737 463,-696.96 460.59,-650.63 458.82,-622.07"/>
<polygon fill="grey" stroke="grey" stroke-width="2" points="462.31,-621.8 458.19,-612.04 455.33,-622.24 462.31,-621.8"/>
</g>
<!-- 15 -->
<g id="node16" class="node">
<title>15</title>
<path fill="none" stroke="#56d87b" stroke-width="2" d="M1231,-468C1231,-468 1173,-468 1173,-468 1167,-468 1161,-462 1161,-456 1161,-456 1161,-444 1161,-444 1161,-438 1167,-432 1173,-432 1173,-432 1231,-432 1231,-432 1237,-432 1243,-438 1243,-444 1243,-444 1243,-456 1243,-456 1243,-462 1237,-468 1231,-468"/>
<text text-anchor="middle" x="1202" y="-447.5" font-family="sans" font-size="10.00">fit_polyclonal</text>
</g>
<!-- 8&#45;&gt;15 -->
<g id="edge34" class="edge">
<title>8&#45;&gt;15</title>
<path fill="none" stroke="grey" stroke-width="2" d="M1025.55,-1007.95C1043.86,-999.46 1063.77,-987.61 1078,-972 1101.35,-946.38 1096.78,-932.8 1108,-900 1160.98,-745.14 1189.48,-549.57 1198.65,-478.44"/>
<polygon fill="grey" stroke="grey" stroke-width="2" points="1202.18,-478.48 1199.96,-468.12 1195.23,-477.6 1202.18,-478.48"/>
</g>
<!-- 8&#45;&gt;16 -->
<g id="edge36" class="edge">
<title>8&#45;&gt;16</title>
<path fill="none" stroke="grey" stroke-width="2" d="M1006.02,-1007.94C1040.64,-984.47 1095,-938.74 1095,-883 1095,-883 1095,-883 1095,-737 1095,-695.63 1079.77,-649.72 1068.59,-621.61"/>
<polygon fill="grey" stroke="grey" stroke-width="2" points="1071.72,-620.02 1064.69,-612.09 1065.24,-622.67 1071.72,-620.02"/>
</g>
<!-- 8&#45;&gt;17 -->
<g id="edge45" class="edge">
<title>8&#45;&gt;17</title>
<path fill="none" stroke="grey" stroke-width="2" d="M1037.51,-1013.09C1066.44,-1005.08 1100.39,-992.19 1126,-972 1400.82,-755.36 1544.86,-636.75 1516,-288 1510.22,-218.2 1512.72,-178.9 1452,-144 1369.15,-96.39 1078.48,-90.95 961.41,-90.75"/>
<polygon fill="grey" stroke="grey" stroke-width="2" points="961.29,-87.25 951.29,-90.74 961.29,-94.25 961.29,-87.25"/>
</g>
<!-- 8&#45;&gt;25 -->
<g id="edge75" class="edge">
<title>8&#45;&gt;25</title>
<path fill="none" stroke="grey" stroke-width="2" d="M918.34,-1018.36C798.31,-1003.35 539,-961.8 539,-883 539,-883 539,-883 539,-809 539,-609.11 495.92,-547.57 565,-360 592.74,-284.68 608.74,-262.73 674,-216 692.63,-202.66 748.33,-185.81 788.78,-174.74"/>
<polygon fill="grey" stroke="grey" stroke-width="2" points="789.71,-178.11 798.45,-172.12 787.88,-171.35 789.71,-178.11"/>
</g>
<!-- 9 -->
<g id="node10" class="node">
<title>9</title>
<path fill="none" stroke="#d8bc56" stroke-width="2" d="M902.5,-684C902.5,-684 753.5,-684 753.5,-684 747.5,-684 741.5,-678 741.5,-672 741.5,-672 741.5,-660 741.5,-660 741.5,-654 747.5,-648 753.5,-648 753.5,-648 902.5,-648 902.5,-648 908.5,-648 914.5,-654 914.5,-660 914.5,-660 914.5,-672 914.5,-672 914.5,-678 908.5,-684 902.5,-684"/>
<text text-anchor="middle" x="828" y="-663.5" font-family="sans" font-size="10.00">check_adequate_variant_counts</text>
</g>
<!-- 9&#45;&gt;0 -->
<g id="edge5" class="edge">
<title>9&#45;&gt;0</title>
<path fill="none" stroke="grey" stroke-width="2" d="M765.11,-647.91C646.82,-615.69 401.48,-548.4 384,-540 284.95,-492.39 242.51,-488.38 183,-396 109.94,-282.58 109.33,-112.31 112.23,-46.41"/>
<polygon fill="grey" stroke="grey" stroke-width="2" points="115.75,-46.22 112.76,-36.05 108.76,-45.86 115.75,-46.22"/>
</g>
<!-- 9&#45;&gt;14 -->
<g id="edge33" class="edge">
<title>9&#45;&gt;14</title>
<path fill="none" stroke="grey" stroke-width="2" d="M741.34,-654.41C676.53,-645.59 586.03,-631.34 508,-612 506.73,-611.68 505.44,-611.35 504.14,-611.01"/>
<polygon fill="grey" stroke="grey" stroke-width="2" points="504.7,-607.53 494.12,-608.13 502.77,-614.25 504.7,-607.53"/>
</g>
<!-- 9&#45;&gt;16 -->
<g id="edge40" class="edge">
<title>9&#45;&gt;16</title>
<path fill="none" stroke="grey" stroke-width="2" d="M883.73,-647.97C921.73,-636.35 971.57,-621.11 1008.04,-609.97"/>
<polygon fill="grey" stroke="grey" stroke-width="2" points="1009.41,-613.21 1017.95,-606.94 1007.37,-606.51 1009.41,-613.21"/>
</g>
<!-- 10&#45;&gt;9 -->
<g id="edge17" class="edge">
<title>10&#45;&gt;9</title>
<path fill="none" stroke="grey" stroke-width="2" d="M917.89,-719.88C902.33,-710.72 882.98,-699.34 866.22,-689.48"/>
<polygon fill="grey" stroke="grey" stroke-width="2" points="867.62,-686.24 857.22,-684.19 864.07,-692.28 867.62,-686.24"/>
</g>
<!-- 10&#45;&gt;17 -->
<g id="edge59" class="edge">
<title>10&#45;&gt;17</title>
<path fill="none" stroke="grey" stroke-width="2" d="M979.9,-719.84C1084.73,-664.57 1408.17,-489.43 1479,-396 1508.59,-356.96 1507.93,-336.49 1501,-288 1490.39,-213.75 1480.1,-177.52 1413,-144 1334.55,-104.8 1071.59,-94.49 961.32,-91.87"/>
<polygon fill="grey" stroke="grey" stroke-width="2" points="961.21,-88.36 951.14,-91.63 961.06,-95.36 961.21,-88.36"/>
</g>
<!-- 10&#45;&gt;21 -->
<g id="edge67" class="edge">
<title>10&#45;&gt;21</title>
<path fill="none" stroke="grey" stroke-width="2" d="M952.49,-719.88C973.7,-653.8 1050.31,-415.08 1076.3,-334.1"/>
<polygon fill="grey" stroke="grey" stroke-width="2" points="1079.77,-334.76 1079.49,-324.17 1073.1,-332.62 1079.77,-334.76"/>
</g>
<!-- 10&#45;&gt;25 -->
<g id="edge81" class="edge">
<title>10&#45;&gt;25</title>
<path fill="none" stroke="grey" stroke-width="2" d="M943.62,-719.98C939.78,-701.85 932.88,-672.45 924,-648 878.79,-523.56 796,-511.4 796,-379 796,-379 796,-379 796,-305 796,-263.63 811.23,-217.72 822.41,-189.61"/>
<polygon fill="grey" stroke="grey" stroke-width="2" points="825.76,-190.67 826.31,-180.09 819.28,-188.02 825.76,-190.67"/>
</g>
<!-- 11&#45;&gt;0 -->
<g id="edge1" class="edge">
<title>11&#45;&gt;0</title>
<path fill="none" stroke="grey" stroke-width="2" d="M1411.69,-359.8C1424.09,-350.67 1437.75,-338.37 1446,-324 1470.07,-282.07 1480.4,-259.35 1459,-216 1435.7,-168.81 1413.16,-165.21 1365,-144 1138.91,-44.44 334.52,-23.22 151.32,-19.64"/>
<polygon fill="grey" stroke="grey" stroke-width="2" points="151.19,-16.13 141.12,-19.44 151.05,-23.13 151.19,-16.13"/>
</g>
<!-- 11&#45;&gt;17 -->
<g id="edge58" class="edge">
<title>11&#45;&gt;17</title>
<path fill="none" stroke="grey" stroke-width="2" d="M1399.36,-359.95C1424.98,-329.33 1470.81,-263.8 1441,-216 1389.93,-134.11 1082.77,-103.28 961.34,-94.2"/>
<polygon fill="grey" stroke="grey" stroke-width="2" points="961.44,-90.69 951.21,-93.46 960.93,-97.67 961.44,-90.69"/>
</g>
<!-- 11&#45;&gt;21 -->
<g id="edge66" class="edge">
<title>11&#45;&gt;21</title>
<path fill="none" stroke="grey" stroke-width="2" d="M1322.62,-363.01C1318.01,-361.99 1313.43,-360.97 1309,-360 1233.56,-343.46 1213.7,-343.62 1139,-324 1137.54,-323.62 1136.07,-323.22 1134.58,-322.81"/>
<polygon fill="grey" stroke="grey" stroke-width="2" points="1135.26,-319.36 1124.69,-319.97 1133.33,-326.09 1135.26,-319.36"/>
</g>
<!-- 24 -->
<g id="node25" class="node">
<title>24</title>
<path fill="none" stroke="#56d8b9" stroke-width="2" d="M1419.5,-252C1419.5,-252 1282.5,-252 1282.5,-252 1276.5,-252 1270.5,-246 1270.5,-240 1270.5,-240 1270.5,-228 1270.5,-228 1270.5,-222 1276.5,-216 1282.5,-216 1282.5,-216 1419.5,-216 1419.5,-216 1425.5,-216 1431.5,-222 1431.5,-228 1431.5,-228 1431.5,-240 1431.5,-240 1431.5,-246 1425.5,-252 1419.5,-252"/>
<text text-anchor="middle" x="1351" y="-231.5" font-family="sans" font-size="10.00">format_antibody_escape_plot</text>
</g>
<!-- 11&#45;&gt;24 -->
<g id="edge74" class="edge">
<title>11&#45;&gt;24</title>
<path fill="none" stroke="grey" stroke-width="2" d="M1380.02,-359.87C1374.37,-335.56 1363.97,-290.82 1357.28,-262.01"/>
<polygon fill="grey" stroke="grey" stroke-width="2" points="1360.67,-261.14 1354.99,-252.19 1353.85,-262.72 1360.67,-261.14"/>
</g>
<!-- 11&#45;&gt;25 -->
<g id="edge80" class="edge">
<title>11&#45;&gt;25</title>
<path fill="none" stroke="grey" stroke-width="2" d="M1338.66,-359.94C1288.78,-341.39 1206.12,-311.28 1134,-288 1079.39,-270.37 1061.34,-277.63 1010,-252 986.14,-240.09 985.17,-229.2 962,-216 935.71,-201.02 904.35,-187.96 879.25,-178.56"/>
<polygon fill="grey" stroke="grey" stroke-width="2" points="880.21,-175.18 869.61,-175.01 877.79,-181.75 880.21,-175.18"/>
</g>
<!-- 12 -->
<g id="node13" class="node">
<title>12</title>
<path fill="none" stroke="#d8cb56" stroke-width="2" d="M468,-468C468,-468 400,-468 400,-468 394,-468 388,-462 388,-456 388,-456 388,-444 388,-444 388,-438 394,-432 400,-432 400,-432 468,-432 468,-432 474,-432 480,-438 480,-444 480,-444 480,-456 480,-456 480,-462 474,-468 468,-468"/>
<text text-anchor="middle" x="434" y="-447.5" font-family="sans" font-size="10.00">avg_muteffects</text>
</g>
<!-- 12&#45;&gt;0 -->
<g id="edge4" class="edge">
<title>12&#45;&gt;0</title>
<path fill="none" stroke="grey" stroke-width="2" d="M408.23,-431.8C363.32,-400.7 270.19,-330.94 214,-252 166.16,-184.79 134.78,-91.12 121.39,-45.75"/>
<polygon fill="grey" stroke="grey" stroke-width="2" points="124.73,-44.69 118.59,-36.06 118,-46.64 124.73,-44.69"/>
</g>
<!-- 12&#45;&gt;11 -->
<g id="edge24" class="edge">
<title>12&#45;&gt;11</title>
<path fill="none" stroke="grey" stroke-width="2" d="M480.14,-445.6C633.49,-434.3 1126.88,-397.95 1312.49,-384.27"/>
<polygon fill="grey" stroke="grey" stroke-width="2" points="1312.97,-387.74 1322.69,-383.52 1312.46,-380.76 1312.97,-387.74"/>
</g>
<!-- 12&#45;&gt;17 -->
<g id="edge44" class="edge">
<title>12&#45;&gt;17</title>
<path fill="none" stroke="grey" stroke-width="2" d="M421.43,-431.83C388,-385.21 300.92,-257.04 323,-216 350.5,-164.87 377.4,-163.74 432,-144 510.4,-115.66 756.68,-99.37 862.68,-93.51"/>
<polygon fill="grey" stroke="grey" stroke-width="2" points="863,-96.99 872.79,-92.95 862.62,-90 863,-96.99"/>
</g>
<!-- 12&#45;&gt;21 -->
<g id="edge70" class="edge">
<title>12&#45;&gt;21</title>
<path fill="none" stroke="grey" stroke-width="2" d="M480.39,-445.6C599.71,-436.66 910.98,-412.11 955,-396 994.69,-381.47 1033.83,-352.05 1058.63,-331.02"/>
<polygon fill="grey" stroke="grey" stroke-width="2" points="1061.19,-333.43 1066.47,-324.24 1056.61,-328.13 1061.19,-333.43"/>
</g>
<!-- 22 -->
<g id="node23" class="node">
<title>22</title>
<path fill="none" stroke="#56d86b" stroke-width="2" d="M451.5,-252C451.5,-252 344.5,-252 344.5,-252 338.5,-252 332.5,-246 332.5,-240 332.5,-240 332.5,-228 332.5,-228 332.5,-222 338.5,-216 344.5,-216 344.5,-216 451.5,-216 451.5,-216 457.5,-216 463.5,-222 463.5,-228 463.5,-228 463.5,-240 463.5,-240 463.5,-246 457.5,-252 451.5,-252"/>
<text text-anchor="middle" x="398" y="-231.5" font-family="sans" font-size="10.00">format_muteffects_plot</text>
</g>
<!-- 12&#45;&gt;22 -->
<g id="edge73" class="edge">
<title>12&#45;&gt;22</title>
<path fill="none" stroke="grey" stroke-width="2" d="M431.11,-431.85C424.87,-394.75 410.08,-306.81 402.56,-262.1"/>
<polygon fill="grey" stroke="grey" stroke-width="2" points="406.01,-261.51 400.9,-252.23 399.11,-262.67 406.01,-261.51"/>
</g>
<!-- 12&#45;&gt;25 -->
<g id="edge88" class="edge">
<title>12&#45;&gt;25</title>
<path fill="none" stroke="grey" stroke-width="2" d="M440.26,-431.87C457.19,-388.09 508.37,-271.62 592,-216 658.84,-171.54 690.8,-198.16 769,-180 775.26,-178.55 781.84,-176.93 788.31,-175.29"/>
<polygon fill="grey" stroke="grey" stroke-width="2" points="789.52,-178.59 798.33,-172.71 787.77,-171.81 789.52,-178.59"/>
</g>
<!-- 13&#45;&gt;12 -->
<g id="edge26" class="edge">
<title>13&#45;&gt;12</title>
<path fill="none" stroke="grey" stroke-width="2" d="M443.03,-503.7C441.71,-495.98 440.12,-486.71 438.65,-478.11"/>
<polygon fill="grey" stroke="grey" stroke-width="2" points="442.07,-477.37 436.93,-468.1 435.17,-478.55 442.07,-477.37"/>
</g>
<!-- 13&#45;&gt;17 -->
<g id="edge42" class="edge">
<title>13&#45;&gt;17</title>
<path fill="none" stroke="grey" stroke-width="2" d="M417.34,-503.89C404.07,-494.71 389.05,-482.33 379,-468 295.91,-349.53 229.98,-229.12 347,-144 388.26,-113.99 732.66,-97.84 862.62,-92.78"/>
<polygon fill="grey" stroke="grey" stroke-width="2" points="862.84,-96.27 872.7,-92.39 862.57,-89.27 862.84,-96.27"/>
</g>
<!-- 13&#45;&gt;21 -->
<g id="edge68" class="edge">
<title>13&#45;&gt;21</title>
<path fill="none" stroke="grey" stroke-width="2" d="M498.6,-519.25C601.64,-513.73 834.52,-490.86 1001,-396 1028.46,-380.35 1052.37,-352.84 1067.58,-332.54"/>
<polygon fill="grey" stroke="grey" stroke-width="2" points="1070.5,-334.47 1073.55,-324.33 1064.84,-330.36 1070.5,-334.47"/>
</g>
<!-- 13&#45;&gt;25 -->
<g id="edge83" class="edge">
<title>13&#45;&gt;25</title>
<path fill="none" stroke="grey" stroke-width="2" d="M462.16,-503.84C470.91,-493.92 481.45,-480.88 489,-468 515.13,-423.43 507.77,-405.63 532,-360 568.31,-291.63 566.7,-260.56 630,-216 682.18,-179.27 707.24,-196.07 769,-180 775.22,-178.38 781.78,-176.67 788.24,-174.98"/>
<polygon fill="grey" stroke="grey" stroke-width="2" points="789.45,-178.28 798.24,-172.37 787.68,-171.51 789.45,-178.28"/>
</g>
<!-- 14&#45;&gt;13 -->
<g id="edge28" class="edge">
<title>14&#45;&gt;13</title>
<path fill="none" stroke="grey" stroke-width="2" d="M454.28,-575.7C453.07,-567.98 451.61,-558.71 450.26,-550.11"/>
<polygon fill="grey" stroke="grey" stroke-width="2" points="453.7,-549.44 448.69,-540.1 446.78,-550.53 453.7,-549.44"/>
</g>
<!-- 18 -->
<g id="node19" class="node">
<title>18</title>
<path fill="none" stroke="#56d0d8" stroke-width="2" d="M680,-396C680,-396 586,-396 586,-396 580,-396 574,-390 574,-384 574,-384 574,-372 574,-372 574,-366 580,-360 586,-360 586,-360 680,-360 680,-360 686,-360 692,-366 692,-372 692,-372 692,-384 692,-384 692,-390 686,-396 680,-396"/>
<text text-anchor="middle" x="633" y="-375.5" font-family="sans" font-size="10.00">analyze_func_scores</text>
</g>
<!-- 14&#45;&gt;18 -->
<g id="edge60" class="edge">
<title>14&#45;&gt;18</title>
<path fill="none" stroke="grey" stroke-width="2" d="M474.48,-575.77C484.56,-565.61 497.31,-552.36 508,-540 547.78,-494.01 590.48,-437.22 614.25,-404.85"/>
<polygon fill="grey" stroke="grey" stroke-width="2" points="617.36,-406.53 620.44,-396.39 611.71,-402.4 617.36,-406.53"/>
</g>
<!-- 15&#45;&gt;11 -->
<g id="edge25" class="edge">
<title>15&#45;&gt;11</title>
<path fill="none" stroke="grey" stroke-width="2" d="M1243.3,-433.12C1269,-423.23 1302.34,-410.41 1330.12,-399.72"/>
<polygon fill="grey" stroke="grey" stroke-width="2" points="1331.61,-402.9 1339.69,-396.04 1329.1,-396.37 1331.61,-402.9"/>
</g>
<!-- 15&#45;&gt;17 -->
<g id="edge52" class="edge">
<title>15&#45;&gt;17</title>
<path fill="none" stroke="grey" stroke-width="2" d="M1243.21,-441C1313.79,-427.22 1450.59,-400.06 1454,-396 1505.5,-334.74 1494.43,-287.76 1459,-216 1435.7,-168.81 1413.77,-163.77 1365,-144 1292.63,-114.67 1062.9,-99.08 961.22,-93.46"/>
<polygon fill="grey" stroke="grey" stroke-width="2" points="961.39,-89.96 951.21,-92.92 961.01,-96.95 961.39,-89.96"/>
</g>
<!-- 15&#45;&gt;21 -->
<g id="edge63" class="edge">
<title>15&#45;&gt;21</title>
<path fill="none" stroke="grey" stroke-width="2" d="M1201.24,-431.88C1199.58,-412.58 1194.35,-381.14 1178,-360 1166.69,-345.37 1150.13,-334.11 1134.11,-325.81"/>
<polygon fill="grey" stroke="grey" stroke-width="2" points="1135.3,-322.5 1124.78,-321.26 1132.23,-328.79 1135.3,-322.5"/>
</g>
<!-- 15&#45;&gt;25 -->
<g id="edge78" class="edge">
<title>15&#45;&gt;25</title>
<path fill="none" stroke="grey" stroke-width="2" d="M1174.88,-431.91C1123.88,-399.32 1011,-325.01 924,-252 910.69,-240.83 879.49,-209.5 857.57,-187.18"/>
<polygon fill="grey" stroke="grey" stroke-width="2" points="860.03,-184.69 850.53,-180 855.03,-189.59 860.03,-184.69"/>
</g>
<!-- 16&#45;&gt;15 -->
<g id="edge35" class="edge">
<title>16&#45;&gt;15</title>
<path fill="none" stroke="grey" stroke-width="2" d="M1074.49,-575.87C1100.07,-550.82 1147.83,-504.05 1177.08,-475.41"/>
<polygon fill="grey" stroke="grey" stroke-width="2" points="1179.75,-477.69 1184.45,-468.19 1174.85,-472.69 1179.75,-477.69"/>
</g>
<!-- 19 -->
<g id="node20" class="node">
<title>19</title>
<path fill="none" stroke="#56d8a9" stroke-width="2" d="M934,-396C934,-396 836,-396 836,-396 830,-396 824,-390 824,-384 824,-384 824,-372 824,-372 824,-366 830,-360 836,-360 836,-360 934,-360 934,-360 940,-360 946,-366 946,-372 946,-372 946,-384 946,-384 946,-390 940,-396 934,-396"/>
<text text-anchor="middle" x="885" y="-375.5" font-family="sans" font-size="10.00">analyze_prob_escape</text>
</g>
<!-- 16&#45;&gt;19 -->
<g id="edge61" class="edge">
<title>16&#45;&gt;19</title>
<path fill="none" stroke="grey" stroke-width="2" d="M1043.22,-575.85C1012.96,-538.21 940.62,-448.2 905.21,-404.15"/>
<polygon fill="grey" stroke="grey" stroke-width="2" points="907.84,-401.83 898.85,-396.23 902.39,-406.22 907.84,-401.83"/>
</g>
<!-- 17&#45;&gt;0 -->
<g id="edge3" class="edge">
<title>17&#45;&gt;0</title>
<path fill="none" stroke="grey" stroke-width="2" d="M872.97,-85.58C736.94,-73.64 284.74,-33.98 151.35,-22.28"/>
<polygon fill="grey" stroke="grey" stroke-width="2" points="151.49,-18.78 141.23,-21.39 150.88,-25.75 151.49,-18.78"/>
</g>
<!-- 18&#45;&gt;17 -->
<g id="edge56" class="edge">
<title>18&#45;&gt;17</title>
<path fill="none" stroke="grey" stroke-width="2" d="M638.85,-359.71C654.11,-317.06 699.18,-205.8 773,-144 798.77,-122.42 834.27,-109.09 862.94,-101.19"/>
<polygon fill="grey" stroke="grey" stroke-width="2" points="863.98,-104.53 872.77,-98.62 862.21,-97.76 863.98,-104.53"/>
</g>
<!-- 18&#45;&gt;21 -->
<g id="edge72" class="edge">
<title>18&#45;&gt;21</title>
<path fill="none" stroke="grey" stroke-width="2" d="M692.09,-367.85C781.91,-353.94 951.2,-327.72 1035.17,-314.72"/>
<polygon fill="grey" stroke="grey" stroke-width="2" points="1035.87,-318.15 1045.22,-313.16 1034.8,-311.23 1035.87,-318.15"/>
</g>
<!-- 18&#45;&gt;25 -->
<g id="edge90" class="edge">
<title>18&#45;&gt;25</title>
<path fill="none" stroke="grey" stroke-width="2" d="M636.47,-359.53C643.76,-327.05 663.65,-256.97 706,-216 728.61,-194.13 761.53,-180.77 788.32,-172.94"/>
<polygon fill="grey" stroke="grey" stroke-width="2" points="789.54,-176.23 798.25,-170.2 787.68,-169.48 789.54,-176.23"/>
</g>
<!-- 19&#45;&gt;17 -->
<g id="edge53" class="edge">
<title>19&#45;&gt;17</title>
<path fill="none" stroke="grey" stroke-width="2" d="M867.35,-359.82C828.3,-319.69 741.72,-217.61 790,-144 806.17,-119.34 836.56,-106.1 862.96,-99.01"/>
<polygon fill="grey" stroke="grey" stroke-width="2" points="863.97,-102.37 872.85,-96.59 862.3,-95.57 863.97,-102.37"/>
</g>
<!-- 19&#45;&gt;21 -->
<g id="edge65" class="edge">
<title>19&#45;&gt;21</title>
<path fill="none" stroke="grey" stroke-width="2" d="M933.67,-359.97C964.55,-349.16 1004.4,-335.21 1035.45,-324.34"/>
<polygon fill="grey" stroke="grey" stroke-width="2" points="1036.92,-327.54 1045.2,-320.93 1034.6,-320.93 1036.92,-327.54"/>
</g>
<!-- 19&#45;&gt;25 -->
<g id="edge77" class="edge">
<title>19&#45;&gt;25</title>
<path fill="none" stroke="grey" stroke-width="2" d="M880.91,-359.85C872.07,-322.75 851.11,-234.81 840.46,-190.1"/>
<polygon fill="grey" stroke="grey" stroke-width="2" points="843.83,-189.15 838.11,-180.23 837.02,-190.77 843.83,-189.15"/>
</g>
<!-- 20 -->
<g id="node21" class="node">
<title>20</title>
<path fill="none" stroke="#68d856" stroke-width="2" d="M1101.5,-252C1101.5,-252 1064.5,-252 1064.5,-252 1058.5,-252 1052.5,-246 1052.5,-240 1052.5,-240 1052.5,-228 1052.5,-228 1052.5,-222 1058.5,-216 1064.5,-216 1064.5,-216 1101.5,-216 1101.5,-216 1107.5,-216 1113.5,-222 1113.5,-228 1113.5,-228 1113.5,-240 1113.5,-240 1113.5,-246 1107.5,-252 1101.5,-252"/>
<text text-anchor="middle" x="1083" y="-231.5" font-family="sans" font-size="10.00">subindex</text>
</g>
<!-- 20&#45;&gt;17 -->
<g id="edge49" class="edge">
<title>20&#45;&gt;17</title>
<path fill="none" stroke="grey" stroke-width="2" d="M1062.37,-215.87C1031.95,-190.6 974.93,-143.25 940.51,-114.68"/>
<polygon fill="grey" stroke="grey" stroke-width="2" points="942.63,-111.89 932.7,-108.19 938.16,-117.27 942.63,-111.89"/>
</g>
<!-- 20&#45;&gt;25 -->
<g id="edge85" class="edge">
<title>20&#45;&gt;25</title>
<path fill="none" stroke="grey" stroke-width="2" d="M1052.17,-220.86C1047.45,-219.14 1042.62,-217.47 1038,-216 984.2,-198.9 921.15,-183.16 879.55,-173.36"/>
<polygon fill="grey" stroke="grey" stroke-width="2" points="880.24,-169.92 869.71,-171.05 878.65,-176.74 880.24,-169.92"/>
</g>
<!-- 21&#45;&gt;17 -->
<g id="edge50" class="edge">
<title>21&#45;&gt;17</title>
<path fill="none" stroke="grey" stroke-width="2" d="M1124.53,-301.69C1156.98,-296.64 1201.05,-283.94 1223,-252 1232.06,-238.81 1231.79,-229.37 1223,-216 1165.08,-127.96 1033.48,-101.93 961.42,-94.23"/>
<polygon fill="grey" stroke="grey" stroke-width="2" points="961.53,-90.72 951.24,-93.22 960.85,-97.69 961.53,-90.72"/>
</g>
<!-- 21&#45;&gt;20 -->
<g id="edge62" class="edge">
<title>21&#45;&gt;20</title>
<path fill="none" stroke="grey" stroke-width="2" d="M1084.51,-287.7C1084.29,-279.98 1084.02,-270.71 1083.77,-262.11"/>
<polygon fill="grey" stroke="grey" stroke-width="2" points="1087.27,-262 1083.49,-252.1 1080.28,-262.2 1087.27,-262"/>
</g>
<!-- 21&#45;&gt;25 -->
<g id="edge87" class="edge">
<title>21&#45;&gt;25</title>
<path fill="none" stroke="grey" stroke-width="2" d="M1045.28,-288.76C1023.14,-279.12 995.4,-266.06 972,-252 949.14,-238.27 946.19,-230.79 924,-216 907.98,-205.32 889.77,-194.39 873.94,-185.24"/>
<polygon fill="grey" stroke="grey" stroke-width="2" points="875.35,-182.02 864.93,-180.08 871.87,-188.09 875.35,-182.02"/>
</g>
<!-- 22&#45;&gt;17 -->
<g id="edge51" class="edge">
<title>22&#45;&gt;17</title>
<path fill="none" stroke="grey" stroke-width="2" d="M407.95,-215.87C421.09,-195.01 446.3,-160.5 478,-144 544,-109.63 763.47,-96.82 862.62,-92.7"/>
<polygon fill="grey" stroke="grey" stroke-width="2" points="862.83,-96.2 872.68,-92.3 862.55,-89.2 862.83,-96.2"/>
</g>
<!-- 22&#45;&gt;25 -->
<g id="edge91" class="edge">
<title>22&#45;&gt;25</title>
<path fill="none" stroke="grey" stroke-width="2" d="M463.75,-222.44C553.22,-208.08 711.04,-182.74 788.51,-170.3"/>
<polygon fill="grey" stroke="grey" stroke-width="2" points="789.13,-173.75 798.45,-168.71 788.02,-166.84 789.13,-173.75"/>
</g>
<!-- 23 -->
<g id="node24" class="node">
<title>23</title>
<path fill="none" stroke="#80d856" stroke-width="2" d="M1202,-252C1202,-252 1144,-252 1144,-252 1138,-252 1132,-246 1132,-240 1132,-240 1132,-228 1132,-228 1132,-222 1138,-216 1144,-216 1144,-216 1202,-216 1202,-216 1208,-216 1214,-222 1214,-228 1214,-228 1214,-240 1214,-240 1214,-246 1208,-252 1202,-252"/>
<text text-anchor="middle" x="1173" y="-231.5" font-family="sans" font-size="10.00">make_graphs</text>
</g>
<!-- 23&#45;&gt;17 -->
<g id="edge48" class="edge">
<title>23&#45;&gt;17</title>
<path fill="none" stroke="grey" stroke-width="2" d="M1142,-215.84C1109.43,-197.84 1056.7,-168.78 1011,-144 992.03,-133.71 970.95,-122.41 953.14,-112.9"/>
<polygon fill="grey" stroke="grey" stroke-width="2" points="954.62,-109.72 944.15,-108.1 951.32,-115.89 954.62,-109.72"/>
</g>
<!-- 23&#45;&gt;25 -->
<g id="edge86" class="edge">
<title>23&#45;&gt;25</title>
<path fill="none" stroke="grey" stroke-width="2" d="M1131.94,-218.51C1128.93,-217.61 1125.93,-216.76 1123,-216 1038.18,-193.93 937.05,-177.61 879.69,-169.27"/>
<polygon fill="grey" stroke="grey" stroke-width="2" points="879.91,-165.76 869.51,-167.8 878.91,-172.69 879.91,-165.76"/>
</g>
<!-- 24&#45;&gt;17 -->
<g id="edge54" class="edge">
<title>24&#45;&gt;17</title>
<path fill="none" stroke="grey" stroke-width="2" d="M1338.03,-215.67C1321.46,-194.94 1290.75,-160.91 1256,-144 1204.93,-119.15 1043.41,-102.22 961.16,-94.98"/>
<polygon fill="grey" stroke="grey" stroke-width="2" points="961.32,-91.48 951.06,-94.1 960.72,-98.45 961.32,-91.48"/>
</g>
<!-- 24&#45;&gt;25 -->
<g id="edge92" class="edge">
<title>24&#45;&gt;25</title>
<path fill="none" stroke="grey" stroke-width="2" d="M1270.22,-222.06C1160.38,-207.19 967.55,-181.08 879.8,-169.2"/>
<polygon fill="grey" stroke="grey" stroke-width="2" points="880.02,-165.7 869.64,-167.83 879.08,-172.64 880.02,-165.7"/>
</g>
<!-- 25&#45;&gt;17 -->
<g id="edge41" class="edge">
<title>25&#45;&gt;17</title>
<path fill="none" stroke="grey" stroke-width="2" d="M853.28,-143.7C862.92,-135.05 874.73,-124.45 885.23,-115.03"/>
<polygon fill="grey" stroke="grey" stroke-width="2" points="887.84,-117.39 892.94,-108.1 883.16,-112.18 887.84,-117.39"/>
</g>
</g>
</svg>
